<mxfile host="app.diagrams.net" modified="2023-12-15T13:45:16.155Z" agent="Mozilla/5.0 (Windows NT 10.0; Win64; x64) AppleWebKit/537.36 (KHTML, like Gecko) Chrome/120.0.0.0 Safari/537.36" etag="zZcFHskLATHJwzmnJCLg" version="22.1.9" type="device">
  <diagram name="Seite-1" id="GYqesnZQCZs1QaEqhSTq">
    <mxGraphModel dx="1059" dy="576" grid="0" gridSize="10" guides="1" tooltips="1" connect="1" arrows="1" fold="1" page="1" pageScale="1" pageWidth="1654" pageHeight="1169" background="#B3B3B3" math="0" shadow="0">
      <root>
        <mxCell id="0" />
        <mxCell id="1" parent="0" />
        <mxCell id="MvTKbooedZdlY5eyJeiM-1" value="&lt;font color=&quot;#ffffff&quot;&gt;«component»&lt;br&gt;&lt;/font&gt;&lt;div&gt;&lt;font color=&quot;#ffffff&quot;&gt;&lt;b&gt;MySQL Database&lt;/b&gt;&lt;/font&gt;&lt;/div&gt;" style="html=1;dropTarget=0;whiteSpace=wrap;fillColor=#b3b3b3;strokeColor=#FFFFFF;" parent="1" vertex="1">
          <mxGeometry x="12" y="112" width="812" height="520" as="geometry" />
        </mxCell>
        <mxCell id="MvTKbooedZdlY5eyJeiM-2" value="" style="shape=module;jettyWidth=8;jettyHeight=4;fillColor=#b3b3b3;strokeColor=#FFFFFF;" parent="MvTKbooedZdlY5eyJeiM-1" vertex="1">
          <mxGeometry x="1" width="20" height="20" relative="1" as="geometry">
            <mxPoint x="-27" y="7" as="offset" />
          </mxGeometry>
        </mxCell>
        <mxCell id="MvTKbooedZdlY5eyJeiM-44" style="edgeStyle=orthogonalEdgeStyle;rounded=0;orthogonalLoop=1;jettySize=auto;html=1;entryX=0;entryY=0.5;entryDx=0;entryDy=0;strokeColor=#FFFFFF;exitX=1;exitY=0.5;exitDx=0;exitDy=0;" parent="1" source="4gdbyEsOkvN1cczmlgGf-1" target="MvTKbooedZdlY5eyJeiM-42" edge="1">
          <mxGeometry relative="1" as="geometry">
            <mxPoint x="200.5" y="241" as="sourcePoint" />
          </mxGeometry>
        </mxCell>
        <mxCell id="MvTKbooedZdlY5eyJeiM-45" style="edgeStyle=orthogonalEdgeStyle;rounded=0;orthogonalLoop=1;jettySize=auto;html=1;entryX=0;entryY=1;entryDx=0;entryDy=0;strokeColor=#FFFFFF;exitX=1;exitY=0.5;exitDx=0;exitDy=0;" parent="1" source="MvTKbooedZdlY5eyJeiM-9" target="MvTKbooedZdlY5eyJeiM-42" edge="1">
          <mxGeometry relative="1" as="geometry">
            <Array as="points">
              <mxPoint x="242" y="467" />
              <mxPoint x="242" y="362" />
              <mxPoint x="368" y="362" />
              <mxPoint x="368" y="300" />
            </Array>
          </mxGeometry>
        </mxCell>
        <mxCell id="MvTKbooedZdlY5eyJeiM-9" value="&lt;div&gt;&lt;font color=&quot;#ffffff&quot;&gt;«component»&lt;b&gt;&lt;br&gt;&lt;/b&gt;&lt;/font&gt;&lt;/div&gt;&lt;div&gt;&lt;font color=&quot;#ffffff&quot;&gt;&lt;b&gt;ChatDatabase&lt;/b&gt;&lt;/font&gt;&lt;/div&gt;" style="html=1;dropTarget=0;whiteSpace=wrap;fillColor=#B3B3B3;strokeColor=#FFFFFF;" parent="1" vertex="1">
          <mxGeometry x="25" y="422" width="180" height="90" as="geometry" />
        </mxCell>
        <mxCell id="MvTKbooedZdlY5eyJeiM-10" value="" style="shape=module;jettyWidth=8;jettyHeight=4;fillColor=#b3b3b3;strokeColor=#FFFFFF;" parent="MvTKbooedZdlY5eyJeiM-9" vertex="1">
          <mxGeometry x="1" width="20" height="20" relative="1" as="geometry">
            <mxPoint x="-27" y="7" as="offset" />
          </mxGeometry>
        </mxCell>
        <mxCell id="MvTKbooedZdlY5eyJeiM-47" style="edgeStyle=orthogonalEdgeStyle;rounded=0;orthogonalLoop=1;jettySize=auto;html=1;entryX=0.5;entryY=1;entryDx=0;entryDy=0;strokeColor=#FFFFFF;" parent="1" source="MvTKbooedZdlY5eyJeiM-11" target="MvTKbooedZdlY5eyJeiM-42" edge="1">
          <mxGeometry relative="1" as="geometry" />
        </mxCell>
        <mxCell id="MvTKbooedZdlY5eyJeiM-11" value="&lt;div&gt;&lt;font color=&quot;#ffffff&quot;&gt;«component»&lt;/font&gt;&lt;/div&gt;&lt;div&gt;&lt;font color=&quot;#ffffff&quot;&gt;&lt;b&gt;ChessClubDatabase&lt;/b&gt;&lt;br&gt;&lt;/font&gt;&lt;/div&gt;" style="html=1;dropTarget=0;whiteSpace=wrap;fillColor=#B3B3B3;strokeColor=#FFFFFF;" parent="1" vertex="1">
          <mxGeometry x="621.5" y="530" width="180" height="90" as="geometry" />
        </mxCell>
        <mxCell id="MvTKbooedZdlY5eyJeiM-12" value="" style="shape=module;jettyWidth=8;jettyHeight=4;strokeColor=#FFFFFF;fillColor=#b3b3b3;" parent="MvTKbooedZdlY5eyJeiM-11" vertex="1">
          <mxGeometry x="1" width="20" height="20" relative="1" as="geometry">
            <mxPoint x="-27" y="7" as="offset" />
          </mxGeometry>
        </mxCell>
        <mxCell id="MvTKbooedZdlY5eyJeiM-21" value="&lt;div&gt;&lt;font color=&quot;#ffffff&quot;&gt;«component»&lt;/font&gt;&lt;/div&gt;&lt;div&gt;&lt;font color=&quot;#ffffff&quot;&gt;&lt;b&gt;UserDatabase&lt;/b&gt;&lt;br&gt;&lt;/font&gt;&lt;/div&gt;" style="html=1;dropTarget=0;whiteSpace=wrap;fillColor=#B3B3B3;strokeColor=#FFFFFF;" parent="1" vertex="1">
          <mxGeometry x="419" y="530" width="180" height="90" as="geometry" />
        </mxCell>
        <mxCell id="MvTKbooedZdlY5eyJeiM-22" value="" style="shape=module;jettyWidth=8;jettyHeight=4;strokeColor=#FFFFFF;fillColor=#B3B3B3;" parent="MvTKbooedZdlY5eyJeiM-21" vertex="1">
          <mxGeometry x="1" width="20" height="20" relative="1" as="geometry">
            <mxPoint x="-27" y="7" as="offset" />
          </mxGeometry>
        </mxCell>
        <mxCell id="MvTKbooedZdlY5eyJeiM-27" value="&lt;font color=&quot;#ffffff&quot;&gt;«component»&lt;br&gt;&lt;/font&gt;&lt;div&gt;&lt;font color=&quot;#ffffff&quot;&gt;&lt;b&gt;Backend&lt;/b&gt;&lt;/font&gt;&lt;/div&gt;" style="html=1;dropTarget=0;whiteSpace=wrap;fillColor=#b3b3b3;strokeColor=#FFFFFF;" parent="1" vertex="1">
          <mxGeometry x="927" y="155" width="718" height="380" as="geometry" />
        </mxCell>
        <mxCell id="MvTKbooedZdlY5eyJeiM-28" value="" style="shape=module;jettyWidth=8;jettyHeight=4;fillColor=#B3B3B3;strokeColor=#FFFFFF;" parent="MvTKbooedZdlY5eyJeiM-27" vertex="1">
          <mxGeometry x="1" width="20" height="20" relative="1" as="geometry">
            <mxPoint x="-27" y="7" as="offset" />
          </mxGeometry>
        </mxCell>
        <mxCell id="MvTKbooedZdlY5eyJeiM-32" value="&lt;div&gt;&lt;font color=&quot;#ffffff&quot;&gt;«component»&lt;/font&gt;&lt;/div&gt;&lt;div&gt;&lt;font color=&quot;#ffffff&quot;&gt;&lt;b&gt;Repository&lt;/b&gt;&lt;br&gt;&lt;/font&gt;&lt;/div&gt;" style="html=1;dropTarget=0;whiteSpace=wrap;fillColor=#b3b3b3;strokeColor=#FFFFFF;" parent="1" vertex="1">
          <mxGeometry x="962.5" y="175.5" width="180" height="90" as="geometry" />
        </mxCell>
        <mxCell id="MvTKbooedZdlY5eyJeiM-33" value="" style="shape=module;jettyWidth=8;jettyHeight=4;strokeColor=#FFFFFF;fillColor=#b3b3b3;" parent="MvTKbooedZdlY5eyJeiM-32" vertex="1">
          <mxGeometry x="1" width="20" height="20" relative="1" as="geometry">
            <mxPoint x="-27" y="7" as="offset" />
          </mxGeometry>
        </mxCell>
        <mxCell id="MvTKbooedZdlY5eyJeiM-36" value="&lt;div&gt;&lt;font color=&quot;#ffffff&quot;&gt;«component»&lt;/font&gt;&lt;/div&gt;&lt;div&gt;&lt;font color=&quot;#ffffff&quot;&gt;&lt;b&gt;ServiceImplementation&lt;br&gt;&lt;/b&gt;&lt;/font&gt;&lt;/div&gt;" style="html=1;dropTarget=0;whiteSpace=wrap;fillColor=#b3b3b3;strokeColor=#FFFFFF;" parent="1" vertex="1">
          <mxGeometry x="1418" y="220" width="180" height="90" as="geometry" />
        </mxCell>
        <mxCell id="MvTKbooedZdlY5eyJeiM-37" value="" style="shape=module;jettyWidth=8;jettyHeight=4;strokeColor=#FFFFFF;fillColor=#B3B3B3;" parent="MvTKbooedZdlY5eyJeiM-36" vertex="1">
          <mxGeometry x="1" width="20" height="20" relative="1" as="geometry">
            <mxPoint x="-27" y="7" as="offset" />
          </mxGeometry>
        </mxCell>
        <mxCell id="MvTKbooedZdlY5eyJeiM-38" value="&lt;div&gt;&lt;font color=&quot;#ffffff&quot;&gt;«component»&lt;/font&gt;&lt;/div&gt;&lt;div&gt;&lt;font color=&quot;#ffffff&quot;&gt;&lt;b&gt;Service&lt;/b&gt;&lt;br&gt;&lt;/font&gt;&lt;/div&gt;" style="html=1;dropTarget=0;whiteSpace=wrap;fillColor=#b3b3b3;strokeColor=#FFFFFF;" parent="1" vertex="1">
          <mxGeometry x="1418" y="379" width="180" height="90" as="geometry" />
        </mxCell>
        <mxCell id="MvTKbooedZdlY5eyJeiM-39" value="" style="shape=module;jettyWidth=8;jettyHeight=4;strokeColor=#FFFFFF;fillColor=#b3b3b3;" parent="MvTKbooedZdlY5eyJeiM-38" vertex="1">
          <mxGeometry x="1" width="20" height="20" relative="1" as="geometry">
            <mxPoint x="-27" y="7" as="offset" />
          </mxGeometry>
        </mxCell>
        <mxCell id="MvTKbooedZdlY5eyJeiM-40" value="&lt;div&gt;&lt;font color=&quot;#ffffff&quot;&gt;«component»&lt;/font&gt;&lt;/div&gt;&lt;div&gt;&lt;font color=&quot;#ffffff&quot;&gt;&lt;b&gt;RestService/Controller&lt;/b&gt;&lt;/font&gt;&lt;/div&gt;" style="html=1;dropTarget=0;whiteSpace=wrap;strokeColor=#FFFFFF;fillColor=#b3b3b3;" parent="1" vertex="1">
          <mxGeometry x="950" y="366.5" width="205" height="115" as="geometry" />
        </mxCell>
        <mxCell id="MvTKbooedZdlY5eyJeiM-41" value="" style="shape=module;jettyWidth=8;jettyHeight=4;strokeColor=#FFFFFF;fillColor=#b3b3b3;" parent="MvTKbooedZdlY5eyJeiM-40" vertex="1">
          <mxGeometry x="1" width="20" height="20" relative="1" as="geometry">
            <mxPoint x="-27" y="7" as="offset" />
          </mxGeometry>
        </mxCell>
        <mxCell id="MvTKbooedZdlY5eyJeiM-42" value="&lt;div&gt;&lt;font color=&quot;#ffffff&quot;&gt;«component»&lt;/font&gt;&lt;/div&gt;&lt;div&gt;&lt;font color=&quot;#ffffff&quot;&gt;&lt;b&gt;Database&lt;/b&gt;&lt;/font&gt;&lt;/div&gt;" style="html=1;dropTarget=0;whiteSpace=wrap;strokeColor=#FFFFFF;fillColor=#afafaf;gradientColor=none;" parent="1" vertex="1">
          <mxGeometry x="609" y="185" width="205" height="115" as="geometry" />
        </mxCell>
        <mxCell id="MvTKbooedZdlY5eyJeiM-43" value="" style="shape=module;jettyWidth=8;jettyHeight=4;strokeColor=#FFFFFF;fillColor=#B3B3B3;" parent="MvTKbooedZdlY5eyJeiM-42" vertex="1">
          <mxGeometry x="1" width="20" height="20" relative="1" as="geometry">
            <mxPoint x="-27" y="7" as="offset" />
          </mxGeometry>
        </mxCell>
        <mxCell id="MvTKbooedZdlY5eyJeiM-52" value="" style="rounded=0;orthogonalLoop=1;jettySize=auto;html=1;endArrow=halfCircle;endFill=0;endSize=6;strokeWidth=1;sketch=0;strokeColor=#FFFFFF;entryX=0.467;entryY=0.267;entryDx=0;entryDy=0;entryPerimeter=0;exitX=0;exitY=0.5;exitDx=0;exitDy=0;" parent="1" source="MvTKbooedZdlY5eyJeiM-40" target="MvTKbooedZdlY5eyJeiM-54" edge="1">
          <mxGeometry relative="1" as="geometry">
            <mxPoint x="699" y="602" as="sourcePoint" />
          </mxGeometry>
        </mxCell>
        <mxCell id="MvTKbooedZdlY5eyJeiM-53" value="" style="rounded=0;orthogonalLoop=1;jettySize=auto;html=1;endArrow=oval;endFill=0;sketch=0;sourcePerimeterSpacing=0;targetPerimeterSpacing=0;endSize=10;entryX=1;entryY=0.5;entryDx=0;entryDy=0;strokeColor=#FFFFFF;" parent="1" source="MvTKbooedZdlY5eyJeiM-54" target="MvTKbooedZdlY5eyJeiM-42" edge="1">
          <mxGeometry relative="1" as="geometry">
            <mxPoint x="817" y="739" as="sourcePoint" />
            <Array as="points" />
          </mxGeometry>
        </mxCell>
        <mxCell id="MvTKbooedZdlY5eyJeiM-54" value="" style="ellipse;whiteSpace=wrap;html=1;align=center;aspect=fixed;resizable=0;perimeter=centerPerimeter;rotatable=0;allowArrows=0;points=[];outlineConnect=1;" parent="1" vertex="1">
          <mxGeometry x="860" y="365" width="10" height="10" as="geometry" />
        </mxCell>
        <mxCell id="MvTKbooedZdlY5eyJeiM-59" value="" style="rounded=0;orthogonalLoop=1;jettySize=auto;html=1;endArrow=halfCircle;endFill=0;endSize=6;strokeWidth=1;sketch=0;strokeColor=#FFFFFF;exitX=1;exitY=0.5;exitDx=0;exitDy=0;" parent="1" source="MvTKbooedZdlY5eyJeiM-40" target="MvTKbooedZdlY5eyJeiM-61" edge="1">
          <mxGeometry relative="1" as="geometry">
            <mxPoint x="1101" y="635" as="sourcePoint" />
          </mxGeometry>
        </mxCell>
        <mxCell id="MvTKbooedZdlY5eyJeiM-60" value="" style="rounded=0;orthogonalLoop=1;jettySize=auto;html=1;endArrow=oval;endFill=0;sketch=0;sourcePerimeterSpacing=0;targetPerimeterSpacing=0;endSize=10;strokeColor=#FFFFFF;exitX=0;exitY=0.5;exitDx=0;exitDy=0;entryX=0.533;entryY=0.267;entryDx=0;entryDy=0;entryPerimeter=0;" parent="1" source="MvTKbooedZdlY5eyJeiM-38" target="MvTKbooedZdlY5eyJeiM-61" edge="1">
          <mxGeometry relative="1" as="geometry">
            <mxPoint x="1061" y="635" as="sourcePoint" />
            <mxPoint x="1078" y="618" as="targetPoint" />
          </mxGeometry>
        </mxCell>
        <mxCell id="MvTKbooedZdlY5eyJeiM-61" value="" style="ellipse;whiteSpace=wrap;html=1;align=center;aspect=fixed;resizable=0;perimeter=centerPerimeter;rotatable=0;allowArrows=0;points=[];outlineConnect=1;" parent="1" vertex="1">
          <mxGeometry x="1277" y="422" width="10" height="10" as="geometry" />
        </mxCell>
        <mxCell id="MvTKbooedZdlY5eyJeiM-62" value="" style="rounded=0;orthogonalLoop=1;jettySize=auto;html=1;endArrow=oval;endFill=0;sketch=0;sourcePerimeterSpacing=0;targetPerimeterSpacing=0;endSize=10;strokeColor=#FFFFFF;exitX=0.5;exitY=1;exitDx=0;exitDy=0;entryX=0.7;entryY=0.9;entryDx=0;entryDy=0;entryPerimeter=0;" parent="1" source="MvTKbooedZdlY5eyJeiM-32" target="MvTKbooedZdlY5eyJeiM-64" edge="1">
          <mxGeometry relative="1" as="geometry">
            <mxPoint x="1257" y="310" as="sourcePoint" />
            <mxPoint x="1143" y="304" as="targetPoint" />
          </mxGeometry>
        </mxCell>
        <mxCell id="MvTKbooedZdlY5eyJeiM-63" value="" style="rounded=0;orthogonalLoop=1;jettySize=auto;html=1;endArrow=halfCircle;endFill=0;endSize=6;strokeWidth=1;sketch=0;strokeColor=#FFFFFF;exitX=0.5;exitY=0;exitDx=0;exitDy=0;entryX=0.95;entryY=0.7;entryDx=0;entryDy=0;entryPerimeter=0;" parent="1" source="MvTKbooedZdlY5eyJeiM-40" target="MvTKbooedZdlY5eyJeiM-64" edge="1">
          <mxGeometry relative="1" as="geometry">
            <mxPoint x="1023" y="311" as="sourcePoint" />
            <mxPoint x="1076" y="313" as="targetPoint" />
          </mxGeometry>
        </mxCell>
        <mxCell id="MvTKbooedZdlY5eyJeiM-64" value="" style="ellipse;whiteSpace=wrap;html=1;align=center;aspect=fixed;resizable=0;perimeter=centerPerimeter;rotatable=0;allowArrows=0;points=[];outlineConnect=1;" parent="1" vertex="1">
          <mxGeometry x="1047.5" y="307" width="10" height="10" as="geometry" />
        </mxCell>
        <mxCell id="MvTKbooedZdlY5eyJeiM-70" value="" style="rounded=0;orthogonalLoop=1;jettySize=auto;html=1;endArrow=oval;endFill=0;sketch=0;sourcePerimeterSpacing=0;targetPerimeterSpacing=0;endSize=10;strokeColor=#FFFFFF;exitX=0.533;exitY=0.967;exitDx=0;exitDy=0;exitPerimeter=0;entryX=0.533;entryY=0.3;entryDx=0;entryDy=0;entryPerimeter=0;" parent="1" edge="1">
          <mxGeometry relative="1" as="geometry">
            <mxPoint x="1506" y="352" as="sourcePoint" />
            <mxPoint x="1506" y="352" as="targetPoint" />
          </mxGeometry>
        </mxCell>
        <mxCell id="MvTKbooedZdlY5eyJeiM-78" value="" style="rounded=0;orthogonalLoop=1;jettySize=auto;html=1;endArrow=halfCircle;endFill=0;endSize=6;strokeWidth=1;sketch=0;strokeColor=#FFFFFF;exitX=0;exitY=0.5;exitDx=0;exitDy=0;" parent="1" source="MvTKbooedZdlY5eyJeiM-36" target="MvTKbooedZdlY5eyJeiM-80" edge="1">
          <mxGeometry relative="1" as="geometry">
            <mxPoint x="1101" y="635" as="sourcePoint" />
          </mxGeometry>
        </mxCell>
        <mxCell id="MvTKbooedZdlY5eyJeiM-79" value="" style="rounded=0;orthogonalLoop=1;jettySize=auto;html=1;endArrow=oval;endFill=0;sketch=0;sourcePerimeterSpacing=0;targetPerimeterSpacing=0;endSize=10;strokeColor=#FFFFFF;exitX=1;exitY=0.5;exitDx=0;exitDy=0;" parent="1" source="MvTKbooedZdlY5eyJeiM-32" target="MvTKbooedZdlY5eyJeiM-80" edge="1">
          <mxGeometry relative="1" as="geometry">
            <mxPoint x="1061" y="635" as="sourcePoint" />
            <mxPoint x="1060" y="615" as="targetPoint" />
          </mxGeometry>
        </mxCell>
        <mxCell id="MvTKbooedZdlY5eyJeiM-80" value="" style="ellipse;whiteSpace=wrap;html=1;align=center;aspect=fixed;resizable=0;perimeter=centerPerimeter;rotatable=0;allowArrows=0;points=[];outlineConnect=1;" parent="1" vertex="1">
          <mxGeometry x="1340" y="252" width="10" height="10" as="geometry" />
        </mxCell>
        <mxCell id="MvTKbooedZdlY5eyJeiM-81" value="" style="rounded=0;orthogonalLoop=1;jettySize=auto;html=1;endArrow=oval;endFill=0;sketch=0;sourcePerimeterSpacing=0;targetPerimeterSpacing=0;endSize=10;strokeColor=#FFFFFF;exitX=1;exitY=0.75;exitDx=0;exitDy=0;entryX=0.133;entryY=0.35;entryDx=0;entryDy=0;entryPerimeter=0;" parent="1" source="MvTKbooedZdlY5eyJeiM-32" target="MvTKbooedZdlY5eyJeiM-82" edge="1">
          <mxGeometry relative="1" as="geometry">
            <mxPoint x="1153" y="231" as="sourcePoint" />
            <mxPoint x="1355" y="267" as="targetPoint" />
          </mxGeometry>
        </mxCell>
        <mxCell id="MvTKbooedZdlY5eyJeiM-82" value="" style="ellipse;whiteSpace=wrap;html=1;align=center;aspect=fixed;resizable=0;perimeter=centerPerimeter;rotatable=0;allowArrows=0;points=[];outlineConnect=1;" parent="1" vertex="1">
          <mxGeometry x="1360" y="323" width="10" height="10" as="geometry" />
        </mxCell>
        <mxCell id="MvTKbooedZdlY5eyJeiM-83" value="" style="rounded=0;orthogonalLoop=1;jettySize=auto;html=1;endArrow=halfCircle;endFill=0;endSize=6;strokeWidth=1;sketch=0;strokeColor=#FFFFFF;exitX=0;exitY=0.25;exitDx=0;exitDy=0;entryX=0.267;entryY=0.883;entryDx=0;entryDy=0;entryPerimeter=0;" parent="1" source="MvTKbooedZdlY5eyJeiM-38" target="MvTKbooedZdlY5eyJeiM-82" edge="1">
          <mxGeometry relative="1" as="geometry">
            <mxPoint x="1418" y="400" as="sourcePoint" />
            <mxPoint x="1345" y="392" as="targetPoint" />
            <Array as="points">
              <mxPoint x="1368" y="330" />
            </Array>
          </mxGeometry>
        </mxCell>
        <mxCell id="MvTKbooedZdlY5eyJeiM-84" value="" style="rounded=0;orthogonalLoop=1;jettySize=auto;html=1;endArrow=halfCircle;endFill=0;endSize=6;strokeWidth=1;sketch=0;strokeColor=#FFFFFF;" parent="1" source="MvTKbooedZdlY5eyJeiM-38" target="MvTKbooedZdlY5eyJeiM-86" edge="1">
          <mxGeometry relative="1" as="geometry">
            <mxPoint x="1101" y="549" as="sourcePoint" />
          </mxGeometry>
        </mxCell>
        <mxCell id="MvTKbooedZdlY5eyJeiM-85" value="" style="rounded=0;orthogonalLoop=1;jettySize=auto;html=1;endArrow=oval;endFill=0;sketch=0;sourcePerimeterSpacing=0;targetPerimeterSpacing=0;endSize=10;strokeColor=#FFFFFF;entryX=0.867;entryY=0.333;entryDx=0;entryDy=0;entryPerimeter=0;exitX=0.5;exitY=1;exitDx=0;exitDy=0;" parent="1" source="MvTKbooedZdlY5eyJeiM-36" target="MvTKbooedZdlY5eyJeiM-86" edge="1">
          <mxGeometry relative="1" as="geometry">
            <mxPoint x="1491.5" y="307" as="sourcePoint" />
            <mxPoint x="1516.5" y="353" as="targetPoint" />
          </mxGeometry>
        </mxCell>
        <mxCell id="MvTKbooedZdlY5eyJeiM-86" value="" style="ellipse;whiteSpace=wrap;html=1;align=center;aspect=fixed;resizable=0;perimeter=centerPerimeter;rotatable=0;allowArrows=0;points=[];outlineConnect=1;" parent="1" vertex="1">
          <mxGeometry x="1503" y="340" width="10" height="10" as="geometry" />
        </mxCell>
        <mxCell id="MvTKbooedZdlY5eyJeiM-87" value="&lt;font color=&quot;#ffffff&quot;&gt;«component»&lt;br&gt;&lt;/font&gt;&lt;div&gt;&lt;font color=&quot;#ffffff&quot;&gt;&lt;b&gt;Frontend&lt;/b&gt;&lt;/font&gt;&lt;/div&gt;" style="html=1;dropTarget=0;whiteSpace=wrap;fillColor=#b3b3b3;strokeColor=#ffffff;" parent="1" vertex="1">
          <mxGeometry x="234" y="670" width="1124" height="564" as="geometry" />
        </mxCell>
        <mxCell id="MvTKbooedZdlY5eyJeiM-88" value="" style="shape=module;jettyWidth=8;jettyHeight=4;fillColor=#B3B3B3;strokeColor=#FFFFFF;" parent="MvTKbooedZdlY5eyJeiM-87" vertex="1">
          <mxGeometry x="1" width="20" height="20" relative="1" as="geometry">
            <mxPoint x="-27" y="7" as="offset" />
          </mxGeometry>
        </mxCell>
        <mxCell id="MvTKbooedZdlY5eyJeiM-89" value="&lt;div&gt;&lt;font color=&quot;#ffffff&quot;&gt;«component»&lt;/font&gt;&lt;/div&gt;&lt;div&gt;&lt;font color=&quot;#ffffff&quot;&gt;&lt;b&gt;WebService&lt;/b&gt;&lt;/font&gt;&lt;/div&gt;" style="html=1;dropTarget=0;whiteSpace=wrap;strokeColor=#FFFFFF;fillColor=#b3b3b3;" parent="1" vertex="1">
          <mxGeometry x="593.5" y="685.5" width="205" height="115" as="geometry" />
        </mxCell>
        <mxCell id="MvTKbooedZdlY5eyJeiM-90" value="" style="shape=module;jettyWidth=8;jettyHeight=4;strokeColor=#FFFFFF;fillColor=#B3B3B3;" parent="MvTKbooedZdlY5eyJeiM-89" vertex="1">
          <mxGeometry x="1" width="20" height="20" relative="1" as="geometry">
            <mxPoint x="-27" y="7" as="offset" />
          </mxGeometry>
        </mxCell>
        <mxCell id="MvTKbooedZdlY5eyJeiM-92" value="" style="rounded=0;orthogonalLoop=1;jettySize=auto;html=1;endArrow=halfCircle;endFill=0;endSize=6;strokeWidth=1;sketch=0;exitX=0.554;exitY=1.051;exitDx=0;exitDy=0;strokeColor=#FFFFFF;entryX=0.9;entryY=0.1;entryDx=0;entryDy=0;entryPerimeter=0;exitPerimeter=0;" parent="1" source="MvTKbooedZdlY5eyJeiM-40" target="MvTKbooedZdlY5eyJeiM-94" edge="1">
          <mxGeometry relative="1" as="geometry">
            <mxPoint x="1129.5" y="474" as="sourcePoint" />
            <mxPoint x="1034" y="543.5" as="targetPoint" />
          </mxGeometry>
        </mxCell>
        <mxCell id="MvTKbooedZdlY5eyJeiM-95" value="" style="rounded=0;orthogonalLoop=1;jettySize=auto;html=1;endArrow=oval;endFill=0;sketch=0;sourcePerimeterSpacing=0;targetPerimeterSpacing=0;endSize=10;exitX=0.5;exitY=0;exitDx=0;exitDy=0;strokeColor=#FFFFFF;" parent="1" source="MvTKbooedZdlY5eyJeiM-89" target="MvTKbooedZdlY5eyJeiM-94" edge="1">
          <mxGeometry relative="1" as="geometry">
            <mxPoint x="725" y="503" as="sourcePoint" />
            <mxPoint x="869" y="425" as="targetPoint" />
          </mxGeometry>
        </mxCell>
        <mxCell id="MvTKbooedZdlY5eyJeiM-94" value="" style="ellipse;whiteSpace=wrap;html=1;align=center;aspect=fixed;resizable=0;perimeter=centerPerimeter;rotatable=0;allowArrows=0;points=[];outlineConnect=1;" parent="1" vertex="1">
          <mxGeometry x="1017" y="548.5" width="10" height="10" as="geometry" />
        </mxCell>
        <mxCell id="MvTKbooedZdlY5eyJeiM-96" value="&lt;div&gt;&lt;font color=&quot;#ffffff&quot;&gt;«component»&lt;/font&gt;&lt;/div&gt;&lt;div&gt;&lt;font color=&quot;#ffffff&quot;&gt;&lt;b&gt;ChessGame&lt;/b&gt;&lt;br&gt;&lt;/font&gt;&lt;/div&gt;" style="html=1;dropTarget=0;whiteSpace=wrap;fillColor=#b3b3b3;strokeColor=#FFFFFF;" parent="1" vertex="1">
          <mxGeometry x="663" y="996" width="180" height="90" as="geometry" />
        </mxCell>
        <mxCell id="MvTKbooedZdlY5eyJeiM-97" value="" style="shape=module;jettyWidth=8;jettyHeight=4;strokeColor=#FFFFFF;fillColor=#b3b3b3;" parent="MvTKbooedZdlY5eyJeiM-96" vertex="1">
          <mxGeometry x="1" width="20" height="20" relative="1" as="geometry">
            <mxPoint x="-27" y="7" as="offset" />
          </mxGeometry>
        </mxCell>
        <mxCell id="MvTKbooedZdlY5eyJeiM-100" value="&lt;div&gt;&lt;font color=&quot;#ffffff&quot;&gt;«component»&lt;/font&gt;&lt;/div&gt;&lt;div&gt;&lt;font color=&quot;#ffffff&quot;&gt;&lt;b&gt;Registration&lt;/b&gt;&lt;br&gt;&lt;/font&gt;&lt;/div&gt;" style="html=1;dropTarget=0;whiteSpace=wrap;fillColor=#B3B3B3;strokeColor=#FFFFFF;" parent="1" vertex="1">
          <mxGeometry x="260" y="800.5" width="180" height="90" as="geometry" />
        </mxCell>
        <mxCell id="MvTKbooedZdlY5eyJeiM-101" value="" style="shape=module;jettyWidth=8;jettyHeight=4;strokeColor=#FFFFFF;fillColor=#B3B3B3;" parent="MvTKbooedZdlY5eyJeiM-100" vertex="1">
          <mxGeometry x="1" width="20" height="20" relative="1" as="geometry">
            <mxPoint x="-27" y="7" as="offset" />
          </mxGeometry>
        </mxCell>
        <mxCell id="MvTKbooedZdlY5eyJeiM-102" value="&lt;div&gt;&lt;font color=&quot;#ffffff&quot;&gt;«component»&lt;/font&gt;&lt;/div&gt;&lt;div&gt;&lt;font color=&quot;#ffffff&quot;&gt;&lt;b&gt;Login&lt;/b&gt;&lt;/font&gt;&lt;br&gt;&lt;/div&gt;" style="html=1;dropTarget=0;whiteSpace=wrap;fillColor=#b3b3b3;strokeColor=#FFFFFF;" parent="1" vertex="1">
          <mxGeometry x="263" y="693" width="180" height="90" as="geometry" />
        </mxCell>
        <mxCell id="MvTKbooedZdlY5eyJeiM-103" value="" style="shape=module;jettyWidth=8;jettyHeight=4;strokeColor=#FFFFFF;fillColor=#b3b3b3;" parent="MvTKbooedZdlY5eyJeiM-102" vertex="1">
          <mxGeometry x="1" width="20" height="20" relative="1" as="geometry">
            <mxPoint x="-27" y="7" as="offset" />
          </mxGeometry>
        </mxCell>
        <mxCell id="MvTKbooedZdlY5eyJeiM-104" value="&lt;div&gt;&lt;font color=&quot;#ffffff&quot;&gt;«component»&lt;/font&gt;&lt;/div&gt;&lt;div&gt;&lt;font color=&quot;#ffffff&quot;&gt;&lt;b&gt;Leaderboard&lt;/b&gt;&lt;br&gt;&lt;/font&gt;&lt;/div&gt;" style="html=1;dropTarget=0;whiteSpace=wrap;fillColor=#b3b3b3;strokeColor=#FFFFFF;" parent="1" vertex="1">
          <mxGeometry x="1140" y="797" width="180" height="90" as="geometry" />
        </mxCell>
        <mxCell id="MvTKbooedZdlY5eyJeiM-105" value="" style="shape=module;jettyWidth=8;jettyHeight=4;strokeColor=#FFFFFF;fillColor=#B3B3B3;" parent="MvTKbooedZdlY5eyJeiM-104" vertex="1">
          <mxGeometry x="1" width="20" height="20" relative="1" as="geometry">
            <mxPoint x="-27" y="7" as="offset" />
          </mxGeometry>
        </mxCell>
        <mxCell id="MvTKbooedZdlY5eyJeiM-106" value="&lt;div&gt;&lt;font color=&quot;#ffffff&quot;&gt;«component»&lt;/font&gt;&lt;/div&gt;&lt;div&gt;&lt;font color=&quot;#ffffff&quot;&gt;&lt;b&gt;HomePage&lt;/b&gt;&lt;br&gt;&lt;/font&gt;&lt;/div&gt;" style="html=1;dropTarget=0;whiteSpace=wrap;fillColor=#b3b3b3;strokeColor=#FFFFFF;" parent="1" vertex="1">
          <mxGeometry x="604" y="848" width="180" height="90" as="geometry" />
        </mxCell>
        <mxCell id="MvTKbooedZdlY5eyJeiM-107" value="" style="shape=module;jettyWidth=8;jettyHeight=4;strokeColor=#FFFFFF;fillColor=#B3B3B3;" parent="MvTKbooedZdlY5eyJeiM-106" vertex="1">
          <mxGeometry x="1" width="20" height="20" relative="1" as="geometry">
            <mxPoint x="-27" y="7" as="offset" />
          </mxGeometry>
        </mxCell>
        <mxCell id="MvTKbooedZdlY5eyJeiM-108" value="&lt;div&gt;&lt;font color=&quot;#ffffff&quot;&gt;«component»&lt;/font&gt;&lt;/div&gt;&lt;div&gt;&lt;font color=&quot;#ffffff&quot;&gt;&lt;b&gt;UserProfile&lt;/b&gt;&lt;br&gt;&lt;/font&gt;&lt;/div&gt;" style="html=1;dropTarget=0;whiteSpace=wrap;fillColor=#b3b3b3;strokeColor=#FFFFFF;" parent="1" vertex="1">
          <mxGeometry x="1140" y="906" width="180" height="90" as="geometry" />
        </mxCell>
        <mxCell id="MvTKbooedZdlY5eyJeiM-109" value="" style="shape=module;jettyWidth=8;jettyHeight=4;strokeColor=#FFFFFF;fillColor=#B3B3B3;" parent="MvTKbooedZdlY5eyJeiM-108" vertex="1">
          <mxGeometry x="1" width="20" height="20" relative="1" as="geometry">
            <mxPoint x="-27" y="7" as="offset" />
          </mxGeometry>
        </mxCell>
        <mxCell id="GyxYuytBnQCfA59tnKjW-6" value="" style="rounded=0;orthogonalLoop=1;jettySize=auto;html=1;endArrow=halfCircle;endFill=0;endSize=6;strokeWidth=1;sketch=0;exitX=1;exitY=0.75;exitDx=0;exitDy=0;strokeColor=#FFFFFF;entryX=0.2;entryY=0.4;entryDx=0;entryDy=0;entryPerimeter=0;" parent="1" source="MvTKbooedZdlY5eyJeiM-89" target="GyxYuytBnQCfA59tnKjW-5" edge="1">
          <mxGeometry relative="1" as="geometry">
            <mxPoint x="626" y="679" as="sourcePoint" />
            <mxPoint x="109.5" y="694.25" as="targetPoint" />
          </mxGeometry>
        </mxCell>
        <mxCell id="GyxYuytBnQCfA59tnKjW-5" value="" style="ellipse;whiteSpace=wrap;html=1;align=center;aspect=fixed;resizable=0;perimeter=centerPerimeter;rotatable=0;allowArrows=0;points=[];outlineConnect=1;" parent="1" vertex="1">
          <mxGeometry x="1018.5" y="874.25" width="10" height="10" as="geometry" />
        </mxCell>
        <mxCell id="GyxYuytBnQCfA59tnKjW-7" value="" style="rounded=0;orthogonalLoop=1;jettySize=auto;html=1;endArrow=oval;endFill=0;sketch=0;sourcePerimeterSpacing=0;targetPerimeterSpacing=0;endSize=10;strokeColor=#FFFFFF;entryX=0.872;entryY=0.397;entryDx=0;entryDy=0;entryPerimeter=0;" parent="1" target="GyxYuytBnQCfA59tnKjW-5" edge="1">
          <mxGeometry relative="1" as="geometry">
            <mxPoint x="1144" y="946" as="sourcePoint" />
            <mxPoint x="1023" y="884" as="targetPoint" />
          </mxGeometry>
        </mxCell>
        <mxCell id="GyxYuytBnQCfA59tnKjW-8" value="" style="rounded=0;orthogonalLoop=1;jettySize=auto;html=1;endArrow=halfCircle;endFill=0;endSize=6;strokeWidth=1;sketch=0;exitX=1;exitY=0.5;exitDx=0;exitDy=0;strokeColor=#FFFFFF;entryX=0.2;entryY=0.4;entryDx=0;entryDy=0;entryPerimeter=0;" parent="1" source="MvTKbooedZdlY5eyJeiM-89" target="GyxYuytBnQCfA59tnKjW-9" edge="1">
          <mxGeometry relative="1" as="geometry">
            <mxPoint x="334" y="729" as="sourcePoint" />
            <mxPoint x="292" y="797" as="targetPoint" />
          </mxGeometry>
        </mxCell>
        <mxCell id="GyxYuytBnQCfA59tnKjW-9" value="" style="ellipse;whiteSpace=wrap;html=1;align=center;aspect=fixed;resizable=0;perimeter=centerPerimeter;rotatable=0;allowArrows=0;points=[];outlineConnect=1;" parent="1" vertex="1">
          <mxGeometry x="1065" y="773" width="10" height="10" as="geometry" />
        </mxCell>
        <mxCell id="GyxYuytBnQCfA59tnKjW-10" value="" style="rounded=0;orthogonalLoop=1;jettySize=auto;html=1;endArrow=oval;endFill=0;sketch=0;sourcePerimeterSpacing=0;targetPerimeterSpacing=0;endSize=10;exitX=0;exitY=0.5;exitDx=0;exitDy=0;strokeColor=#FFFFFF;" parent="1" source="MvTKbooedZdlY5eyJeiM-104" edge="1">
          <mxGeometry relative="1" as="geometry">
            <mxPoint x="221" y="931.5" as="sourcePoint" />
            <mxPoint x="1070" y="778" as="targetPoint" />
          </mxGeometry>
        </mxCell>
        <mxCell id="GyxYuytBnQCfA59tnKjW-11" value="" style="rounded=0;orthogonalLoop=1;jettySize=auto;html=1;endArrow=halfCircle;endFill=0;endSize=6;strokeWidth=1;sketch=0;exitX=0;exitY=0.5;exitDx=0;exitDy=0;strokeColor=#FFFFFF;" parent="1" source="GyxYuytBnQCfA59tnKjW-19" edge="1">
          <mxGeometry relative="1" as="geometry">
            <mxPoint x="344" y="739" as="sourcePoint" />
            <mxPoint x="546" y="757" as="targetPoint" />
          </mxGeometry>
        </mxCell>
        <mxCell id="GyxYuytBnQCfA59tnKjW-14" value="" style="rounded=0;orthogonalLoop=1;jettySize=auto;html=1;endArrow=halfCircle;endFill=0;endSize=6;strokeWidth=1;sketch=0;exitX=0;exitY=1;exitDx=0;exitDy=0;strokeColor=#FFFFFF;" parent="1" source="GyxYuytBnQCfA59tnKjW-15" edge="1">
          <mxGeometry relative="1" as="geometry">
            <mxPoint x="1193" y="785" as="sourcePoint" />
            <mxPoint x="546" y="846" as="targetPoint" />
          </mxGeometry>
        </mxCell>
        <mxCell id="GyxYuytBnQCfA59tnKjW-16" value="" style="rounded=0;orthogonalLoop=1;jettySize=auto;html=1;endArrow=oval;endFill=0;sketch=0;sourcePerimeterSpacing=0;targetPerimeterSpacing=0;endSize=10;exitX=1;exitY=0.5;exitDx=0;exitDy=0;strokeColor=#FFFFFF;" parent="1" source="MvTKbooedZdlY5eyJeiM-100" edge="1">
          <mxGeometry relative="1" as="geometry">
            <mxPoint x="611" y="918" as="sourcePoint" />
            <mxPoint x="551" y="846" as="targetPoint" />
          </mxGeometry>
        </mxCell>
        <mxCell id="GyxYuytBnQCfA59tnKjW-18" value="" style="rounded=0;orthogonalLoop=1;jettySize=auto;html=1;endArrow=oval;endFill=0;sketch=0;sourcePerimeterSpacing=0;targetPerimeterSpacing=0;endSize=10;exitX=1;exitY=0.5;exitDx=0;exitDy=0;strokeColor=#FFFFFF;" parent="1" source="MvTKbooedZdlY5eyJeiM-102" target="GyxYuytBnQCfA59tnKjW-19" edge="1">
          <mxGeometry relative="1" as="geometry">
            <mxPoint x="651" y="932" as="sourcePoint" />
            <mxPoint x="708" y="754" as="targetPoint" />
          </mxGeometry>
        </mxCell>
        <mxCell id="GyxYuytBnQCfA59tnKjW-19" value="" style="ellipse;whiteSpace=wrap;html=1;align=center;aspect=fixed;resizable=0;perimeter=centerPerimeter;rotatable=0;allowArrows=0;points=[];outlineConnect=1;strokeColor=#ffffff;" parent="1" vertex="1">
          <mxGeometry x="540.5" y="752" width="10" height="10" as="geometry" />
        </mxCell>
        <mxCell id="GyxYuytBnQCfA59tnKjW-22" value="" style="ellipse;whiteSpace=wrap;html=1;align=center;aspect=fixed;resizable=0;perimeter=centerPerimeter;rotatable=0;allowArrows=0;points=[];outlineConnect=1;" parent="1" vertex="1">
          <mxGeometry x="1023" y="974" width="10" height="10" as="geometry" />
        </mxCell>
        <mxCell id="GyxYuytBnQCfA59tnKjW-27" value="" style="rounded=0;orthogonalLoop=1;jettySize=auto;html=1;endArrow=halfCircle;endFill=0;endSize=6;strokeWidth=1;sketch=0;exitX=0.5;exitY=1;exitDx=0;exitDy=0;strokeColor=#FFFFFF;" parent="1" source="MvTKbooedZdlY5eyJeiM-89" edge="1">
          <mxGeometry relative="1" as="geometry">
            <mxPoint x="354" y="749" as="sourcePoint" />
            <mxPoint x="696" y="825" as="targetPoint" />
          </mxGeometry>
        </mxCell>
        <mxCell id="GyxYuytBnQCfA59tnKjW-28" value="" style="ellipse;whiteSpace=wrap;html=1;align=center;aspect=fixed;resizable=0;perimeter=centerPerimeter;rotatable=0;allowArrows=0;points=[];outlineConnect=1;" parent="1" vertex="1">
          <mxGeometry x="689" y="822" width="10" height="10" as="geometry" />
        </mxCell>
        <mxCell id="GyxYuytBnQCfA59tnKjW-29" value="" style="rounded=0;orthogonalLoop=1;jettySize=auto;html=1;endArrow=oval;endFill=0;sketch=0;sourcePerimeterSpacing=0;targetPerimeterSpacing=0;endSize=10;exitX=0.5;exitY=0;exitDx=0;exitDy=0;strokeColor=#FFFFFF;entryX=0.9;entryY=0.9;entryDx=0;entryDy=0;entryPerimeter=0;" parent="1" source="MvTKbooedZdlY5eyJeiM-106" target="GyxYuytBnQCfA59tnKjW-28" edge="1">
          <mxGeometry relative="1" as="geometry">
            <mxPoint x="241" y="951.5" as="sourcePoint" />
            <mxPoint x="301" y="984" as="targetPoint" />
          </mxGeometry>
        </mxCell>
        <mxCell id="4gdbyEsOkvN1cczmlgGf-1" value="&lt;div&gt;&lt;font color=&quot;#ffffff&quot;&gt;«component»&lt;b&gt;&lt;br&gt;&lt;/b&gt;&lt;/font&gt;&lt;/div&gt;&lt;div&gt;&lt;font color=&quot;#ffffff&quot;&gt;&lt;b&gt;ChatMessageDatabase&lt;/b&gt;&lt;/font&gt;&lt;/div&gt;" style="html=1;dropTarget=0;whiteSpace=wrap;fillColor=#B3B3B3;strokeColor=#FFFFFF;" vertex="1" parent="1">
          <mxGeometry x="25" y="217" width="180" height="90" as="geometry" />
        </mxCell>
        <mxCell id="4gdbyEsOkvN1cczmlgGf-2" value="" style="shape=module;jettyWidth=8;jettyHeight=4;fillColor=#b3b3b3;strokeColor=#FFFFFF;" vertex="1" parent="4gdbyEsOkvN1cczmlgGf-1">
          <mxGeometry x="1" width="20" height="20" relative="1" as="geometry">
            <mxPoint x="-27" y="7" as="offset" />
          </mxGeometry>
        </mxCell>
        <mxCell id="4gdbyEsOkvN1cczmlgGf-3" value="&lt;div&gt;&lt;font color=&quot;#ffffff&quot;&gt;«component»&lt;b&gt;&lt;br&gt;&lt;/b&gt;&lt;/font&gt;&lt;/div&gt;&lt;div&gt;&lt;font color=&quot;#ffffff&quot;&gt;&lt;b&gt;FriendDatabase&lt;/b&gt;&lt;/font&gt;&lt;/div&gt;" style="html=1;dropTarget=0;whiteSpace=wrap;fillColor=#B3B3B3;strokeColor=#FFFFFF;" vertex="1" parent="1">
          <mxGeometry x="25" y="528" width="180" height="90" as="geometry" />
        </mxCell>
        <mxCell id="4gdbyEsOkvN1cczmlgGf-4" value="" style="shape=module;jettyWidth=8;jettyHeight=4;fillColor=#b3b3b3;strokeColor=#FFFFFF;" vertex="1" parent="4gdbyEsOkvN1cczmlgGf-3">
          <mxGeometry x="1" width="20" height="20" relative="1" as="geometry">
            <mxPoint x="-27" y="7" as="offset" />
          </mxGeometry>
        </mxCell>
        <mxCell id="4gdbyEsOkvN1cczmlgGf-5" value="&lt;div&gt;&lt;font color=&quot;#ffffff&quot;&gt;«component»&lt;/font&gt;&lt;/div&gt;&lt;div&gt;&lt;span style=&quot;background-color: initial; color: rgb(255, 255, 255);&quot;&gt;MatchRequest&lt;/span&gt;&lt;b style=&quot;background-color: initial; color: rgb(255, 255, 255);&quot;&gt;Database&lt;/b&gt;&lt;/div&gt;" style="html=1;dropTarget=0;whiteSpace=wrap;fillColor=#B3B3B3;strokeColor=#FFFFFF;" vertex="1" parent="1">
          <mxGeometry x="29" y="118" width="180" height="90" as="geometry" />
        </mxCell>
        <mxCell id="4gdbyEsOkvN1cczmlgGf-6" value="" style="shape=module;jettyWidth=8;jettyHeight=4;fillColor=#b3b3b3;strokeColor=#FFFFFF;" vertex="1" parent="4gdbyEsOkvN1cczmlgGf-5">
          <mxGeometry x="1" width="20" height="20" relative="1" as="geometry">
            <mxPoint x="-27" y="7" as="offset" />
          </mxGeometry>
        </mxCell>
        <mxCell id="4gdbyEsOkvN1cczmlgGf-7" value="&lt;div&gt;&lt;font color=&quot;#ffffff&quot;&gt;«component»&lt;b&gt;&lt;br&gt;&lt;/b&gt;&lt;/font&gt;&lt;/div&gt;&lt;div&gt;&lt;font color=&quot;#ffffff&quot;&gt;&lt;b&gt;ChessGameDatabase&lt;/b&gt;&lt;/font&gt;&lt;/div&gt;" style="html=1;dropTarget=0;whiteSpace=wrap;fillColor=#B3B3B3;strokeColor=#FFFFFF;" vertex="1" parent="1">
          <mxGeometry x="525" y="416" width="180" height="90" as="geometry" />
        </mxCell>
        <mxCell id="4gdbyEsOkvN1cczmlgGf-8" value="" style="shape=module;jettyWidth=8;jettyHeight=4;fillColor=#b3b3b3;strokeColor=#FFFFFF;" vertex="1" parent="4gdbyEsOkvN1cczmlgGf-7">
          <mxGeometry x="1" width="20" height="20" relative="1" as="geometry">
            <mxPoint x="-27" y="7" as="offset" />
          </mxGeometry>
        </mxCell>
        <mxCell id="4gdbyEsOkvN1cczmlgGf-9" value="&lt;div&gt;&lt;font color=&quot;#ffffff&quot;&gt;«component»&lt;b&gt;&lt;br&gt;&lt;/b&gt;&lt;/font&gt;&lt;/div&gt;&lt;div&gt;&lt;font color=&quot;#ffffff&quot;&gt;&lt;b&gt;UserDatabase&lt;/b&gt;&lt;/font&gt;&lt;/div&gt;" style="html=1;dropTarget=0;whiteSpace=wrap;fillColor=#B3B3B3;strokeColor=#FFFFFF;" vertex="1" parent="1">
          <mxGeometry x="225" y="530" width="180" height="90" as="geometry" />
        </mxCell>
        <mxCell id="4gdbyEsOkvN1cczmlgGf-10" value="" style="shape=module;jettyWidth=8;jettyHeight=4;fillColor=#b3b3b3;strokeColor=#FFFFFF;" vertex="1" parent="4gdbyEsOkvN1cczmlgGf-9">
          <mxGeometry x="1" width="20" height="20" relative="1" as="geometry">
            <mxPoint x="-27" y="7" as="offset" />
          </mxGeometry>
        </mxCell>
        <mxCell id="4gdbyEsOkvN1cczmlgGf-11" value="&lt;div&gt;&lt;font color=&quot;#ffffff&quot;&gt;«component»&lt;b&gt;&lt;br&gt;&lt;/b&gt;&lt;/font&gt;&lt;/div&gt;&lt;div&gt;&lt;font color=&quot;#ffffff&quot;&gt;&lt;b&gt;MitgliederDatabase&lt;/b&gt;&lt;/font&gt;&lt;/div&gt;" style="html=1;dropTarget=0;whiteSpace=wrap;fillColor=#B3B3B3;strokeColor=#FFFFFF;" vertex="1" parent="1">
          <mxGeometry x="25" y="320" width="180" height="90" as="geometry" />
        </mxCell>
        <mxCell id="4gdbyEsOkvN1cczmlgGf-12" value="" style="shape=module;jettyWidth=8;jettyHeight=4;fillColor=#b3b3b3;strokeColor=#FFFFFF;" vertex="1" parent="4gdbyEsOkvN1cczmlgGf-11">
          <mxGeometry x="1" width="20" height="20" relative="1" as="geometry">
            <mxPoint x="-27" y="7" as="offset" />
          </mxGeometry>
        </mxCell>
        <mxCell id="4gdbyEsOkvN1cczmlgGf-13" value="&lt;div&gt;&lt;font color=&quot;#ffffff&quot;&gt;«component»&lt;b&gt;&lt;br&gt;&lt;/b&gt;&lt;/font&gt;&lt;/div&gt;&lt;div&gt;&lt;font color=&quot;#ffffff&quot;&gt;&lt;b&gt;PictureDatabase&lt;/b&gt;&lt;/font&gt;&lt;/div&gt;" style="html=1;dropTarget=0;whiteSpace=wrap;fillColor=#B3B3B3;strokeColor=#FFFFFF;" vertex="1" parent="1">
          <mxGeometry x="263" y="388" width="180" height="90" as="geometry" />
        </mxCell>
        <mxCell id="4gdbyEsOkvN1cczmlgGf-14" value="" style="shape=module;jettyWidth=8;jettyHeight=4;fillColor=#b3b3b3;strokeColor=#FFFFFF;" vertex="1" parent="4gdbyEsOkvN1cczmlgGf-13">
          <mxGeometry x="1" width="20" height="20" relative="1" as="geometry">
            <mxPoint x="-27" y="7" as="offset" />
          </mxGeometry>
        </mxCell>
        <mxCell id="4gdbyEsOkvN1cczmlgGf-15" style="edgeStyle=orthogonalEdgeStyle;rounded=0;orthogonalLoop=1;jettySize=auto;html=1;entryX=0.5;entryY=0;entryDx=0;entryDy=0;strokeColor=#FFFFFF;exitX=1;exitY=0.5;exitDx=0;exitDy=0;" edge="1" parent="1" source="4gdbyEsOkvN1cczmlgGf-5" target="MvTKbooedZdlY5eyJeiM-42">
          <mxGeometry relative="1" as="geometry">
            <mxPoint x="215" y="272" as="sourcePoint" />
            <mxPoint x="619" y="253" as="targetPoint" />
          </mxGeometry>
        </mxCell>
        <mxCell id="4gdbyEsOkvN1cczmlgGf-16" style="edgeStyle=orthogonalEdgeStyle;rounded=0;orthogonalLoop=1;jettySize=auto;html=1;strokeColor=#FFFFFF;exitX=0.5;exitY=0;exitDx=0;exitDy=0;entryX=0.298;entryY=1;entryDx=0;entryDy=0;entryPerimeter=0;" edge="1" parent="1" source="4gdbyEsOkvN1cczmlgGf-9" target="MvTKbooedZdlY5eyJeiM-42">
          <mxGeometry relative="1" as="geometry">
            <Array as="points">
              <mxPoint x="315" y="499" />
              <mxPoint x="497" y="499" />
              <mxPoint x="497" y="388" />
              <mxPoint x="670" y="388" />
            </Array>
            <mxPoint x="502" y="540" as="sourcePoint" />
            <mxPoint x="676" y="306" as="targetPoint" />
          </mxGeometry>
        </mxCell>
        <mxCell id="4gdbyEsOkvN1cczmlgGf-18" style="edgeStyle=orthogonalEdgeStyle;rounded=0;orthogonalLoop=1;jettySize=auto;html=1;strokeColor=#FFFFFF;exitX=0.5;exitY=0;exitDx=0;exitDy=0;" edge="1" parent="1" source="MvTKbooedZdlY5eyJeiM-21" target="MvTKbooedZdlY5eyJeiM-42">
          <mxGeometry relative="1" as="geometry">
            <Array as="points">
              <mxPoint x="507" y="530" />
              <mxPoint x="507" y="398" />
              <mxPoint x="680" y="398" />
            </Array>
            <mxPoint x="325" y="540" as="sourcePoint" />
            <mxPoint x="680" y="310" as="targetPoint" />
          </mxGeometry>
        </mxCell>
        <mxCell id="4gdbyEsOkvN1cczmlgGf-19" style="edgeStyle=orthogonalEdgeStyle;rounded=0;orthogonalLoop=1;jettySize=auto;html=1;entryX=0.75;entryY=1;entryDx=0;entryDy=0;strokeColor=#FFFFFF;exitX=1;exitY=0.5;exitDx=0;exitDy=0;" edge="1" parent="1" source="4gdbyEsOkvN1cczmlgGf-7" target="MvTKbooedZdlY5eyJeiM-42">
          <mxGeometry relative="1" as="geometry">
            <mxPoint x="722" y="540" as="sourcePoint" />
            <mxPoint x="722" y="310" as="targetPoint" />
          </mxGeometry>
        </mxCell>
        <mxCell id="4gdbyEsOkvN1cczmlgGf-20" style="edgeStyle=orthogonalEdgeStyle;rounded=0;orthogonalLoop=1;jettySize=auto;html=1;entryX=0.14;entryY=1.03;entryDx=0;entryDy=0;strokeColor=#FFFFFF;exitX=1;exitY=0.5;exitDx=0;exitDy=0;entryPerimeter=0;" edge="1" parent="1" source="4gdbyEsOkvN1cczmlgGf-3" target="MvTKbooedZdlY5eyJeiM-42">
          <mxGeometry relative="1" as="geometry">
            <Array as="points">
              <mxPoint x="215" y="573" />
              <mxPoint x="215" y="492" />
              <mxPoint x="477" y="492" />
              <mxPoint x="477" y="343" />
              <mxPoint x="636" y="343" />
              <mxPoint x="636" y="306" />
              <mxPoint x="638" y="306" />
            </Array>
            <mxPoint x="215" y="477" as="sourcePoint" />
            <mxPoint x="619" y="310" as="targetPoint" />
          </mxGeometry>
        </mxCell>
        <mxCell id="4gdbyEsOkvN1cczmlgGf-25" style="edgeStyle=orthogonalEdgeStyle;rounded=0;orthogonalLoop=1;jettySize=auto;html=1;entryX=0;entryY=0.75;entryDx=0;entryDy=0;strokeColor=#FFFFFF;exitX=1;exitY=0.5;exitDx=0;exitDy=0;" edge="1" parent="1" source="4gdbyEsOkvN1cczmlgGf-11" target="MvTKbooedZdlY5eyJeiM-42">
          <mxGeometry relative="1" as="geometry">
            <mxPoint x="219" y="173" as="sourcePoint" />
            <mxPoint x="722" y="195" as="targetPoint" />
            <Array as="points">
              <mxPoint x="229" y="365" />
              <mxPoint x="229" y="271" />
            </Array>
          </mxGeometry>
        </mxCell>
        <mxCell id="4gdbyEsOkvN1cczmlgGf-26" value="&lt;div&gt;&lt;font color=&quot;#ffffff&quot;&gt;«component»&lt;/font&gt;&lt;/div&gt;&lt;div&gt;&lt;font color=&quot;#ffffff&quot;&gt;&lt;b&gt;Friends/Friendslist&lt;/b&gt;&lt;br&gt;&lt;/font&gt;&lt;/div&gt;" style="html=1;dropTarget=0;whiteSpace=wrap;fillColor=#b3b3b3;strokeColor=#FFFFFF;" vertex="1" parent="1">
          <mxGeometry x="1140" y="686" width="180" height="90" as="geometry" />
        </mxCell>
        <mxCell id="4gdbyEsOkvN1cczmlgGf-27" value="" style="shape=module;jettyWidth=8;jettyHeight=4;strokeColor=#FFFFFF;fillColor=#B3B3B3;" vertex="1" parent="4gdbyEsOkvN1cczmlgGf-26">
          <mxGeometry x="1" width="20" height="20" relative="1" as="geometry">
            <mxPoint x="-27" y="7" as="offset" />
          </mxGeometry>
        </mxCell>
        <mxCell id="4gdbyEsOkvN1cczmlgGf-28" value="&lt;div&gt;&lt;font color=&quot;#ffffff&quot;&gt;«component»&lt;/font&gt;&lt;/div&gt;&lt;div&gt;&lt;font color=&quot;#ffffff&quot;&gt;&lt;b&gt;ChessClub&lt;/b&gt;&lt;br&gt;&lt;/font&gt;&lt;/div&gt;" style="html=1;dropTarget=0;whiteSpace=wrap;fillColor=#b3b3b3;strokeColor=#FFFFFF;" vertex="1" parent="1">
          <mxGeometry x="252" y="996" width="180" height="90" as="geometry" />
        </mxCell>
        <mxCell id="4gdbyEsOkvN1cczmlgGf-29" value="" style="shape=module;jettyWidth=8;jettyHeight=4;strokeColor=#FFFFFF;fillColor=#b3b3b3;" vertex="1" parent="4gdbyEsOkvN1cczmlgGf-28">
          <mxGeometry x="1" width="20" height="20" relative="1" as="geometry">
            <mxPoint x="-27" y="7" as="offset" />
          </mxGeometry>
        </mxCell>
        <mxCell id="4gdbyEsOkvN1cczmlgGf-30" value="&lt;div&gt;&lt;font color=&quot;#ffffff&quot;&gt;«component»&lt;/font&gt;&lt;/div&gt;&lt;div&gt;&lt;font color=&quot;#ffffff&quot;&gt;&lt;b&gt;Chat&lt;/b&gt;&lt;br&gt;&lt;/font&gt;&lt;/div&gt;" style="html=1;dropTarget=0;whiteSpace=wrap;fillColor=#b3b3b3;strokeColor=#FFFFFF;" vertex="1" parent="1">
          <mxGeometry x="461" y="996" width="180" height="90" as="geometry" />
        </mxCell>
        <mxCell id="4gdbyEsOkvN1cczmlgGf-31" value="" style="shape=module;jettyWidth=8;jettyHeight=4;strokeColor=#FFFFFF;fillColor=#b3b3b3;" vertex="1" parent="4gdbyEsOkvN1cczmlgGf-30">
          <mxGeometry x="1" width="20" height="20" relative="1" as="geometry">
            <mxPoint x="-27" y="7" as="offset" />
          </mxGeometry>
        </mxCell>
        <mxCell id="4gdbyEsOkvN1cczmlgGf-32" value="&lt;div&gt;&lt;font color=&quot;#ffffff&quot;&gt;«component»&lt;/font&gt;&lt;/div&gt;&lt;div&gt;&lt;font color=&quot;#ffffff&quot;&gt;&lt;b&gt;Mitglieder&lt;/b&gt;&lt;/font&gt;&lt;/div&gt;" style="html=1;dropTarget=0;whiteSpace=wrap;fillColor=#b3b3b3;strokeColor=#FFFFFF;" vertex="1" parent="1">
          <mxGeometry x="461" y="1138" width="180" height="90" as="geometry" />
        </mxCell>
        <mxCell id="4gdbyEsOkvN1cczmlgGf-33" value="" style="shape=module;jettyWidth=8;jettyHeight=4;strokeColor=#FFFFFF;fillColor=#b3b3b3;" vertex="1" parent="4gdbyEsOkvN1cczmlgGf-32">
          <mxGeometry x="1" width="20" height="20" relative="1" as="geometry">
            <mxPoint x="-27" y="7" as="offset" />
          </mxGeometry>
        </mxCell>
        <mxCell id="4gdbyEsOkvN1cczmlgGf-34" value="&lt;div&gt;&lt;font color=&quot;#ffffff&quot;&gt;«component»&lt;/font&gt;&lt;/div&gt;&lt;div&gt;&lt;font color=&quot;#ffffff&quot;&gt;&lt;b&gt;ChessPuzzle&lt;/b&gt;&lt;br&gt;&lt;/font&gt;&lt;/div&gt;" style="html=1;dropTarget=0;whiteSpace=wrap;fillColor=#b3b3b3;strokeColor=#FFFFFF;" vertex="1" parent="1">
          <mxGeometry x="880" y="999" width="180" height="90" as="geometry" />
        </mxCell>
        <mxCell id="4gdbyEsOkvN1cczmlgGf-35" value="" style="shape=module;jettyWidth=8;jettyHeight=4;strokeColor=#FFFFFF;fillColor=#b3b3b3;" vertex="1" parent="4gdbyEsOkvN1cczmlgGf-34">
          <mxGeometry x="1" width="20" height="20" relative="1" as="geometry">
            <mxPoint x="-27" y="7" as="offset" />
          </mxGeometry>
        </mxCell>
        <mxCell id="4gdbyEsOkvN1cczmlgGf-36" value="" style="rounded=0;orthogonalLoop=1;jettySize=auto;html=1;endArrow=halfCircle;endFill=0;endSize=6;strokeWidth=1;sketch=0;exitX=0;exitY=1;exitDx=0;exitDy=0;strokeColor=#FFFFFF;entryX=0.5;entryY=0.1;entryDx=0;entryDy=0;entryPerimeter=0;" edge="1" parent="1" source="MvTKbooedZdlY5eyJeiM-89" target="GyxYuytBnQCfA59tnKjW-15">
          <mxGeometry relative="1" as="geometry">
            <mxPoint x="594" y="801" as="sourcePoint" />
            <mxPoint x="551" y="848" as="targetPoint" />
          </mxGeometry>
        </mxCell>
        <mxCell id="GyxYuytBnQCfA59tnKjW-15" value="" style="ellipse;whiteSpace=wrap;html=1;align=center;aspect=fixed;resizable=0;perimeter=centerPerimeter;rotatable=0;allowArrows=0;points=[];outlineConnect=1;strokeColor=#ffffff;" parent="1" vertex="1">
          <mxGeometry x="546" y="843" width="10" height="10" as="geometry" />
        </mxCell>
        <mxCell id="4gdbyEsOkvN1cczmlgGf-37" value="" style="rounded=0;orthogonalLoop=1;jettySize=auto;html=1;endArrow=halfCircle;endFill=0;endSize=6;strokeWidth=1;sketch=0;edgeStyle=orthogonalEdgeStyle;exitX=-0.013;exitY=0.632;exitDx=0;exitDy=0;exitPerimeter=0;strokeColor=#ffffff;" edge="1" target="GyxYuytBnQCfA59tnKjW-19" parent="1" source="MvTKbooedZdlY5eyJeiM-89">
          <mxGeometry relative="1" as="geometry">
            <mxPoint x="959" y="830" as="sourcePoint" />
            <mxPoint x="939" y="830" as="targetPoint" />
          </mxGeometry>
        </mxCell>
        <mxCell id="4gdbyEsOkvN1cczmlgGf-40" value="" style="rounded=0;orthogonalLoop=1;jettySize=auto;html=1;endArrow=oval;endFill=0;sketch=0;sourcePerimeterSpacing=0;targetPerimeterSpacing=0;endSize=10;exitX=0.5;exitY=0;exitDx=0;exitDy=0;strokeColor=#FFFFFF;entryX=0.2;entryY=0.856;entryDx=0;entryDy=0;entryPerimeter=0;" edge="1" parent="1" source="4gdbyEsOkvN1cczmlgGf-28" target="4gdbyEsOkvN1cczmlgGf-42">
          <mxGeometry relative="1" as="geometry">
            <mxPoint x="450" y="856" as="sourcePoint" />
            <mxPoint x="561" y="858" as="targetPoint" />
          </mxGeometry>
        </mxCell>
        <mxCell id="4gdbyEsOkvN1cczmlgGf-41" value="" style="rounded=0;orthogonalLoop=1;jettySize=auto;html=1;endArrow=halfCircle;endFill=0;endSize=6;strokeWidth=1;sketch=0;exitX=0;exitY=0.5;exitDx=0;exitDy=0;strokeColor=#FFFFFF;" edge="1" parent="1" source="4gdbyEsOkvN1cczmlgGf-42">
          <mxGeometry relative="1" as="geometry">
            <mxPoint x="604" y="811" as="sourcePoint" />
            <mxPoint x="474" y="952" as="targetPoint" />
          </mxGeometry>
        </mxCell>
        <mxCell id="4gdbyEsOkvN1cczmlgGf-43" value="" style="rounded=0;orthogonalLoop=1;jettySize=auto;html=1;endArrow=halfCircle;endFill=0;endSize=6;strokeWidth=1;sketch=0;exitX=0;exitY=0.5;exitDx=0;exitDy=0;strokeColor=#FFFFFF;" edge="1" parent="1" source="MvTKbooedZdlY5eyJeiM-106" target="4gdbyEsOkvN1cczmlgGf-42">
          <mxGeometry relative="1" as="geometry">
            <mxPoint x="594" y="898" as="sourcePoint" />
            <mxPoint x="474" y="952" as="targetPoint" />
          </mxGeometry>
        </mxCell>
        <mxCell id="4gdbyEsOkvN1cczmlgGf-42" value="" style="ellipse;whiteSpace=wrap;html=1;align=center;aspect=fixed;resizable=0;perimeter=centerPerimeter;rotatable=0;allowArrows=0;points=[];outlineConnect=1;strokeColor=#ffffff;" vertex="1" parent="1">
          <mxGeometry x="467" y="947" width="10" height="10" as="geometry" />
        </mxCell>
        <mxCell id="4gdbyEsOkvN1cczmlgGf-44" value="" style="rounded=0;orthogonalLoop=1;jettySize=auto;html=1;endArrow=halfCircle;endFill=0;endSize=6;strokeWidth=1;sketch=0;exitX=0.5;exitY=1;exitDx=0;exitDy=0;strokeColor=#FFFFFF;entryX=0.339;entryY=0.944;entryDx=0;entryDy=0;entryPerimeter=0;" edge="1" parent="1" source="4gdbyEsOkvN1cczmlgGf-30" target="4gdbyEsOkvN1cczmlgGf-46">
          <mxGeometry relative="1" as="geometry">
            <mxPoint x="604" y="908" as="sourcePoint" />
            <mxPoint x="491" y="1115" as="targetPoint" />
          </mxGeometry>
        </mxCell>
        <mxCell id="4gdbyEsOkvN1cczmlgGf-45" value="" style="rounded=0;orthogonalLoop=1;jettySize=auto;html=1;endArrow=oval;endFill=0;sketch=0;sourcePerimeterSpacing=0;targetPerimeterSpacing=0;endSize=10;exitX=0.5;exitY=0;exitDx=0;exitDy=0;strokeColor=#FFFFFF;entryX=0.606;entryY=0.856;entryDx=0;entryDy=0;entryPerimeter=0;" edge="1" parent="1" source="4gdbyEsOkvN1cczmlgGf-32" target="4gdbyEsOkvN1cczmlgGf-46">
          <mxGeometry relative="1" as="geometry">
            <mxPoint x="450" y="856" as="sourcePoint" />
            <mxPoint x="561" y="856" as="targetPoint" />
          </mxGeometry>
        </mxCell>
        <mxCell id="4gdbyEsOkvN1cczmlgGf-46" value="" style="ellipse;whiteSpace=wrap;html=1;align=center;aspect=fixed;resizable=0;perimeter=centerPerimeter;rotatable=0;allowArrows=0;points=[];outlineConnect=1;strokeColor=#ffffff;" vertex="1" parent="1">
          <mxGeometry x="530.5" y="1107" width="10" height="10" as="geometry" />
        </mxCell>
        <mxCell id="4gdbyEsOkvN1cczmlgGf-47" value="" style="rounded=0;orthogonalLoop=1;jettySize=auto;html=1;endArrow=halfCircle;endFill=0;endSize=6;strokeWidth=1;sketch=0;strokeColor=#FFFFFF;exitX=0.25;exitY=1;exitDx=0;exitDy=0;entryX=0.302;entryY=0.532;entryDx=0;entryDy=0;entryPerimeter=0;" edge="1" parent="1" source="4gdbyEsOkvN1cczmlgGf-56" target="MvTKbooedZdlY5eyJeiM-87">
          <mxGeometry relative="1" as="geometry">
            <mxPoint x="639" y="928" as="sourcePoint" />
            <mxPoint x="482" y="962" as="targetPoint" />
          </mxGeometry>
        </mxCell>
        <mxCell id="4gdbyEsOkvN1cczmlgGf-48" value="" style="rounded=0;orthogonalLoop=1;jettySize=auto;html=1;endArrow=halfCircle;endFill=0;endSize=6;strokeWidth=1;sketch=0;strokeColor=#FFFFFF;exitX=0.75;exitY=1;exitDx=0;exitDy=0;entryX=0.455;entryY=0.53;entryDx=0;entryDy=0;entryPerimeter=0;" edge="1" parent="1" source="4gdbyEsOkvN1cczmlgGf-55" target="MvTKbooedZdlY5eyJeiM-87">
          <mxGeometry relative="1" as="geometry">
            <mxPoint x="624" y="913" as="sourcePoint" />
            <mxPoint x="492" y="972" as="targetPoint" />
          </mxGeometry>
        </mxCell>
        <mxCell id="4gdbyEsOkvN1cczmlgGf-49" value="" style="rounded=0;orthogonalLoop=1;jettySize=auto;html=1;endArrow=halfCircle;endFill=0;endSize=6;strokeWidth=1;sketch=0;exitX=1;exitY=0.5;exitDx=0;exitDy=0;strokeColor=#FFFFFF;entryX=0.582;entryY=0.505;entryDx=0;entryDy=0;entryPerimeter=0;" edge="1" parent="1" source="4gdbyEsOkvN1cczmlgGf-54" target="MvTKbooedZdlY5eyJeiM-87">
          <mxGeometry relative="1" as="geometry">
            <mxPoint x="634" y="923" as="sourcePoint" />
            <mxPoint x="502" y="982" as="targetPoint" />
          </mxGeometry>
        </mxCell>
        <mxCell id="4gdbyEsOkvN1cczmlgGf-50" value="" style="rounded=0;orthogonalLoop=1;jettySize=auto;html=1;endArrow=oval;endFill=0;sketch=0;sourcePerimeterSpacing=0;targetPerimeterSpacing=0;endSize=10;strokeColor=#FFFFFF;exitX=0.5;exitY=0;exitDx=0;exitDy=0;" edge="1" parent="1" source="4gdbyEsOkvN1cczmlgGf-34" target="4gdbyEsOkvN1cczmlgGf-54">
          <mxGeometry relative="1" as="geometry">
            <mxPoint x="352" y="1006" as="sourcePoint" />
            <mxPoint x="482" y="962" as="targetPoint" />
          </mxGeometry>
        </mxCell>
        <mxCell id="4gdbyEsOkvN1cczmlgGf-51" value="" style="rounded=0;orthogonalLoop=1;jettySize=auto;html=1;endArrow=oval;endFill=0;sketch=0;sourcePerimeterSpacing=0;targetPerimeterSpacing=0;endSize=10;exitX=0.5;exitY=0;exitDx=0;exitDy=0;strokeColor=#FFFFFF;" edge="1" parent="1" source="MvTKbooedZdlY5eyJeiM-96" target="4gdbyEsOkvN1cczmlgGf-55">
          <mxGeometry relative="1" as="geometry">
            <mxPoint x="362" y="1016" as="sourcePoint" />
            <mxPoint x="492" y="972" as="targetPoint" />
          </mxGeometry>
        </mxCell>
        <mxCell id="4gdbyEsOkvN1cczmlgGf-52" value="" style="rounded=0;orthogonalLoop=1;jettySize=auto;html=1;endArrow=oval;endFill=0;sketch=0;sourcePerimeterSpacing=0;targetPerimeterSpacing=0;endSize=10;exitX=0.5;exitY=0;exitDx=0;exitDy=0;strokeColor=#FFFFFF;entryX=0.694;entryY=0.222;entryDx=0;entryDy=0;entryPerimeter=0;" edge="1" parent="1" source="4gdbyEsOkvN1cczmlgGf-30" target="4gdbyEsOkvN1cczmlgGf-56">
          <mxGeometry relative="1" as="geometry">
            <mxPoint x="372" y="1026" as="sourcePoint" />
            <mxPoint x="564" y="913" as="targetPoint" />
          </mxGeometry>
        </mxCell>
        <mxCell id="4gdbyEsOkvN1cczmlgGf-57" value="" style="rounded=0;orthogonalLoop=1;jettySize=auto;html=1;endArrow=halfCircle;endFill=0;endSize=6;strokeWidth=1;sketch=0;strokeColor=#FFFFFF;exitX=0.25;exitY=1;exitDx=0;exitDy=0;entryX=0.302;entryY=0.532;entryDx=0;entryDy=0;entryPerimeter=0;" edge="1" parent="1" source="MvTKbooedZdlY5eyJeiM-106" target="4gdbyEsOkvN1cczmlgGf-56">
          <mxGeometry relative="1" as="geometry">
            <mxPoint x="649" y="938" as="sourcePoint" />
            <mxPoint x="573" y="970" as="targetPoint" />
          </mxGeometry>
        </mxCell>
        <mxCell id="4gdbyEsOkvN1cczmlgGf-56" value="" style="ellipse;whiteSpace=wrap;html=1;align=center;aspect=fixed;resizable=0;perimeter=centerPerimeter;rotatable=0;allowArrows=0;points=[];outlineConnect=1;strokeColor=#ffffff;" vertex="1" parent="1">
          <mxGeometry x="570.5" y="964" width="10" height="10" as="geometry" />
        </mxCell>
        <mxCell id="4gdbyEsOkvN1cczmlgGf-58" value="" style="rounded=0;orthogonalLoop=1;jettySize=auto;html=1;endArrow=halfCircle;endFill=0;endSize=6;strokeWidth=1;sketch=0;strokeColor=#FFFFFF;exitX=0.75;exitY=1;exitDx=0;exitDy=0;entryX=0.455;entryY=0.53;entryDx=0;entryDy=0;entryPerimeter=0;" edge="1" parent="1" source="MvTKbooedZdlY5eyJeiM-106" target="4gdbyEsOkvN1cczmlgGf-55">
          <mxGeometry relative="1" as="geometry">
            <mxPoint x="739" y="938" as="sourcePoint" />
            <mxPoint x="745" y="969" as="targetPoint" />
          </mxGeometry>
        </mxCell>
        <mxCell id="4gdbyEsOkvN1cczmlgGf-55" value="" style="ellipse;whiteSpace=wrap;html=1;align=center;aspect=fixed;resizable=0;perimeter=centerPerimeter;rotatable=0;allowArrows=0;points=[];outlineConnect=1;strokeColor=#ffffff;" vertex="1" parent="1">
          <mxGeometry x="738" y="962" width="10" height="10" as="geometry" />
        </mxCell>
        <mxCell id="4gdbyEsOkvN1cczmlgGf-59" value="" style="rounded=0;orthogonalLoop=1;jettySize=auto;html=1;endArrow=halfCircle;endFill=0;endSize=6;strokeWidth=1;sketch=0;exitX=1;exitY=0.5;exitDx=0;exitDy=0;strokeColor=#FFFFFF;entryX=0.582;entryY=0.505;entryDx=0;entryDy=0;entryPerimeter=0;" edge="1" parent="1" source="MvTKbooedZdlY5eyJeiM-106" target="4gdbyEsOkvN1cczmlgGf-54">
          <mxGeometry relative="1" as="geometry">
            <mxPoint x="784" y="893" as="sourcePoint" />
            <mxPoint x="888" y="955" as="targetPoint" />
          </mxGeometry>
        </mxCell>
        <mxCell id="4gdbyEsOkvN1cczmlgGf-54" value="" style="ellipse;whiteSpace=wrap;html=1;align=center;aspect=fixed;resizable=0;perimeter=centerPerimeter;rotatable=0;allowArrows=0;points=[];outlineConnect=1;strokeColor=#ffffff;" vertex="1" parent="1">
          <mxGeometry x="880" y="947" width="10" height="10" as="geometry" />
        </mxCell>
        <mxCell id="4gdbyEsOkvN1cczmlgGf-60" value="" style="rounded=0;orthogonalLoop=1;jettySize=auto;html=1;endArrow=oval;endFill=0;sketch=0;sourcePerimeterSpacing=0;targetPerimeterSpacing=0;endSize=10;strokeColor=#FFFFFF;exitX=0;exitY=0.5;exitDx=0;exitDy=0;" edge="1" parent="1" source="4gdbyEsOkvN1cczmlgGf-26" target="4gdbyEsOkvN1cczmlgGf-62">
          <mxGeometry relative="1" as="geometry">
            <mxPoint x="1150" y="852" as="sourcePoint" />
            <mxPoint x="1080" y="788" as="targetPoint" />
          </mxGeometry>
        </mxCell>
        <mxCell id="4gdbyEsOkvN1cczmlgGf-62" value="" style="ellipse;whiteSpace=wrap;html=1;align=center;aspect=fixed;resizable=0;perimeter=centerPerimeter;rotatable=0;allowArrows=0;points=[];outlineConnect=1;strokeColor=#ffffff;" vertex="1" parent="1">
          <mxGeometry x="1044" y="726" width="10" height="10" as="geometry" />
        </mxCell>
        <mxCell id="4gdbyEsOkvN1cczmlgGf-63" value="" style="rounded=0;orthogonalLoop=1;jettySize=auto;html=1;endArrow=halfCircle;endFill=0;endSize=6;strokeWidth=1;sketch=0;exitX=1;exitY=0.25;exitDx=0;exitDy=0;strokeColor=#FFFFFF;entryX=0.722;entryY=0.911;entryDx=0;entryDy=0;entryPerimeter=0;" edge="1" parent="1" source="MvTKbooedZdlY5eyJeiM-89" target="4gdbyEsOkvN1cczmlgGf-62">
          <mxGeometry relative="1" as="geometry">
            <mxPoint x="809" y="753" as="sourcePoint" />
            <mxPoint x="1080" y="788" as="targetPoint" />
          </mxGeometry>
        </mxCell>
      </root>
    </mxGraphModel>
  </diagram>
</mxfile>
